<?xml version="1.0" encoding="UTF-8" standalone="no"?>
<!-- Created with Inkscape (http://www.inkscape.org/) -->

<svg
   xmlns:dc="http://purl.org/dc/elements/1.1/"
   xmlns:cc="http://creativecommons.org/ns#"
   xmlns:rdf="http://www.w3.org/1999/02/22-rdf-syntax-ns#"
   xmlns:svg="http://www.w3.org/2000/svg"
   xmlns="http://www.w3.org/2000/svg"
   xmlns:sodipodi="http://sodipodi.sourceforge.net/DTD/sodipodi-0.dtd"
   xmlns:inkscape="http://www.inkscape.org/namespaces/inkscape"
   width="1000"
   height="600"
   viewBox="0 0 264.58334 158.75"
   version="1.1"
   id="svg821"
   inkscape:version="0.92.4 (5da689c313, 2019-01-14)"
   sodipodi:docname="desenhando.svg">
  <defs
     id="defs815">
    <inkscape:path-effect
       effect="spiro"
       id="path-effect1404"
       is_visible="true" />
    <inkscape:path-effect
       effect="bspline"
       id="path-effect1398"
       is_visible="true"
       weight="33.333333"
       steps="2"
       helper_size="0"
       apply_no_weight="true"
       apply_with_weight="true"
       only_selected="false" />
    <inkscape:path-effect
       effect="bspline"
       id="path-effect1394"
       is_visible="true"
       weight="33.333333"
       steps="2"
       helper_size="0"
       apply_no_weight="true"
       apply_with_weight="true"
       only_selected="false" />
    <inkscape:path-effect
       effect="spiro"
       id="path-effect1390"
       is_visible="true" />
    <inkscape:path-effect
       effect="spiro"
       id="path-effect1386"
       is_visible="true" />
    <inkscape:path-effect
       effect="spiro"
       id="path-effect1404-3"
       is_visible="true" />
  </defs>
  <sodipodi:namedview
     id="base"
     pagecolor="#ffffff"
     bordercolor="#666666"
     borderopacity="1.0"
     inkscape:pageopacity="0.0"
     inkscape:pageshadow="2"
     inkscape:zoom="0.7"
     inkscape:cx="494.42187"
     inkscape:cy="153.16821"
     inkscape:document-units="mm"
     inkscape:current-layer="layer1"
     showgrid="false"
     units="px"
     inkscape:window-width="1920"
     inkscape:window-height="1021"
     inkscape:window-x="1440"
     inkscape:window-y="0"
     inkscape:window-maximized="1" />
  <metadata
     id="metadata818">
    <rdf:RDF>
      <cc:Work
         rdf:about="">
        <dc:format>image/svg+xml</dc:format>
        <dc:type
           rdf:resource="http://purl.org/dc/dcmitype/StillImage" />
        <dc:title></dc:title>
      </cc:Work>
    </rdf:RDF>
  </metadata>
  <g
     inkscape:label="Camada 1"
     inkscape:groupmode="layer"
     id="layer1"
     transform="translate(0,-138.24998)">
    <rect
       style="opacity:1;vector-effect:none;fill:#008000;fill-opacity:1;stroke:none;stroke-width:1.01555026;stroke-linecap:butt;stroke-linejoin:miter;stroke-miterlimit:4;stroke-dasharray:none;stroke-dashoffset:0;stroke-opacity:1"
       id="rect1366"
       width="265.66589"
       height="33.94323"
       x="-0.26726952"
       y="263.58594"
       inkscape:export-xdpi="96"
       inkscape:export-ydpi="96" />
    <rect
       style="opacity:1;vector-effect:none;fill:#00ffff;fill-opacity:1;stroke:none;stroke-width:1.10000002;stroke-linecap:butt;stroke-linejoin:miter;stroke-miterlimit:4;stroke-dasharray:none;stroke-dashoffset:0;stroke-opacity:1"
       id="rect1368"
       width="265.93314"
       height="125.34406"
       x="-0.53453904"
       y="138.24188"
       inkscape:export-xdpi="96"
       inkscape:export-ydpi="96" />
    <path
       style="fill:#0000ff;stroke:#000000;stroke-width:0.26458332px;stroke-linecap:butt;stroke-linejoin:miter;stroke-opacity:1"
       d="m 43.832203,186.08312 c 1.71389,-0.4475 3.288439,-1.35724 4.627027,-2.51735 1.338588,-1.16011 2.448827,-2.56634 3.389268,-4.06743 1.880881,-3.00216 3.088286,-6.36766 4.631303,-9.55667 1.543018,-3.18902 3.521741,-6.30973 6.480196,-8.25864 1.479228,-0.97445 3.187829,-1.62878 4.954692,-1.75476 1.766863,-0.12599 3.589743,0.29597 5.04989,1.29879 1.2203,0.83809 2.151141,2.04603 2.847326,3.3525 0.696186,1.30647 1.172456,2.71698 1.626092,4.12614 0.453636,1.40917 0.889717,2.82942 1.512909,4.17224 0.623192,1.34282 1.445555,2.61629 2.5663,3.58348 1.354934,1.1693 3.092129,1.83818 4.861265,2.10885 1.769135,0.27068 3.576811,0.1622 5.349372,-0.085 3.545121,-0.49451 7.071374,-1.54309 10.636387,-1.22199 3.22072,0.29009 6.33367,1.74574 8.57938,4.07253 2.24572,2.3268 3.59423,5.51199 3.6437,8.74538 0.0495,3.23338 -1.21467,6.47827 -3.48001,8.78596 -2.26534,2.30769 -5.51139,3.63537 -8.74307,3.51947 -2.847968,-0.10214 -5.568156,-1.27103 -7.962092,-2.81713 -2.393937,-1.5461 -4.516437,-3.46896 -6.717944,-5.27858 -2.201506,-1.80962 -4.525575,-3.53228 -7.172573,-4.5881 -2.646997,-1.05582 -5.673753,-1.39486 -8.348849,-0.4124 -2.210269,0.81174 -4.032152,2.46415 -5.431989,4.35747 -1.399837,1.89333 -2.420219,4.03442 -3.441102,6.15622 -1.020883,2.12179 -2.06112,4.25555 -3.493983,6.12401 -1.432862,1.86845 -3.302578,3.47568 -5.539984,4.20932 -1.493603,0.48975 -3.102625,0.57381 -4.661791,0.37455 -1.559166,-0.19927 -3.072928,-0.6753 -4.523555,-1.2806 -2.901255,-1.2106 -5.564244,-2.93531 -8.454443,-4.17207 -4.599582,-1.96823 -9.75638,-2.69657 -13.954853,-5.4174 -2.099236,-1.36042 -3.926136,-3.24756 -4.839167,-5.57649 -0.456516,-1.16446 -0.676775,-2.42715 -0.587215,-3.67469 0.08956,-1.24754 0.494056,-2.47802 1.206907,-3.50575 0.636377,-0.91747 1.508515,-1.66187 2.488066,-2.1978 0.979551,-0.53592 2.06468,-0.8669 3.169687,-1.0272 2.210013,-0.32059 4.465293,0.0349 6.630369,0.58203 2.165076,0.54716 4.281004,1.28598 6.464892,1.75243 2.183888,0.46644 4.476886,0.6529 6.637592,0.0887 z"
       id="path1402"
       inkscape:connector-curvature="0"
       inkscape:path-effect="#path-effect1404"
       inkscape:original-d="m 43.832203,186.08312 c 8.463269,-0.267 19.42185,-16.57097 29.132376,-24.85606 9.710528,-8.28509 5.702017,10.15598 8.552627,15.23436 2.85061,5.07839 13.898279,0.53428 20.847024,0.80181 6.94874,0.26753 2.6e-4,16.74863 0,25.12334 -2.7e-4,8.37471 -20.134041,-8.73107 -30.201458,-13.09621 -10.067417,-4.36514 -11.937775,13.89775 -17.907058,20.84702 -5.969285,6.94928 -11.759596,-3.38568 -17.639789,-5.07812 -5.880195,-1.69244 -12.115954,-12.11648 -18.174328,-18.17433 -6.058374,-6.05784 16.927334,-0.5348 25.390606,-0.80181 z"
       transform="translate(1.3363476,1.6036172)"
       inkscape:export-xdpi="96"
       inkscape:export-ydpi="96" />
    <path
       transform="matrix(0.8384967,0,0,0.8384967,137.57646,17.273339)"
       style="fill:#0000ff;stroke:#000000;stroke-width:0.26458332px;stroke-linecap:butt;stroke-linejoin:miter;stroke-opacity:1"
       d="m 43.832203,186.08312 c 1.71389,-0.4475 3.288439,-1.35724 4.627027,-2.51735 1.338588,-1.16011 2.448827,-2.56634 3.389268,-4.06743 1.880881,-3.00216 3.088286,-6.36766 4.631303,-9.55667 1.543018,-3.18902 3.521741,-6.30973 6.480196,-8.25864 1.479228,-0.97445 3.187829,-1.62878 4.954692,-1.75476 1.766863,-0.12599 3.589743,0.29597 5.04989,1.29879 1.2203,0.83809 2.151141,2.04603 2.847326,3.3525 0.696186,1.30647 1.172456,2.71698 1.626092,4.12614 0.453636,1.40917 0.889717,2.82942 1.512909,4.17224 0.623192,1.34282 1.445555,2.61629 2.5663,3.58348 1.354934,1.1693 3.092129,1.83818 4.861265,2.10885 1.769135,0.27068 3.576811,0.1622 5.349372,-0.085 3.545121,-0.49451 7.071374,-1.54309 10.636387,-1.22199 3.22072,0.29009 6.33367,1.74574 8.57938,4.07253 2.24572,2.3268 3.59423,5.51199 3.6437,8.74538 0.0495,3.23338 -1.21467,6.47827 -3.48001,8.78596 -2.26534,2.30769 -5.51139,3.63537 -8.74307,3.51947 -2.847968,-0.10214 -5.568156,-1.27103 -7.962092,-2.81713 -2.393937,-1.5461 -4.516437,-3.46896 -6.717944,-5.27858 -2.201506,-1.80962 -4.525575,-3.53228 -7.172573,-4.5881 -2.646997,-1.05582 -5.673753,-1.39486 -8.348849,-0.4124 -2.210269,0.81174 -4.032152,2.46415 -5.431989,4.35747 -1.399837,1.89333 -2.420219,4.03442 -3.441102,6.15622 -1.020883,2.12179 -2.06112,4.25555 -3.493983,6.12401 -1.432862,1.86845 -3.302578,3.47568 -5.539984,4.20932 -1.493603,0.48975 -3.102625,0.57381 -4.661791,0.37455 -1.559166,-0.19927 -3.072928,-0.6753 -4.523555,-1.2806 -2.901255,-1.2106 -5.564244,-2.93531 -8.454443,-4.17207 -4.599582,-1.96823 -9.75638,-2.69657 -13.954853,-5.4174 -2.099236,-1.36042 -3.926136,-3.24756 -4.839167,-5.57649 -0.456516,-1.16446 -0.676775,-2.42715 -0.587215,-3.67469 0.08956,-1.24754 0.494056,-2.47802 1.206907,-3.50575 0.636377,-0.91747 1.508515,-1.66187 2.488066,-2.1978 0.979551,-0.53592 2.06468,-0.8669 3.169687,-1.0272 2.210013,-0.32059 4.465293,0.0349 6.630369,0.58203 2.165076,0.54716 4.281004,1.28598 6.464892,1.75243 2.183888,0.46644 4.476886,0.6529 6.637592,0.0887 z"
       id="path1402-6"
       inkscape:connector-curvature="0"
       inkscape:path-effect="#path-effect1404-3"
       inkscape:original-d="m 43.832203,186.08312 c 8.463269,-0.267 19.42185,-16.57097 29.132376,-24.85606 9.710528,-8.28509 5.702017,10.15598 8.552627,15.23436 2.85061,5.07839 13.898279,0.53428 20.847024,0.80181 6.94874,0.26753 2.6e-4,16.74863 0,25.12334 -2.7e-4,8.37471 -20.134041,-8.73107 -30.201458,-13.09621 -10.067417,-4.36514 -11.937775,13.89775 -17.907058,20.84702 -5.969285,6.94928 -11.759596,-3.38568 -17.639789,-5.07812 -5.880195,-1.69244 -12.115954,-12.11648 -18.174328,-18.17433 -6.058374,-6.05784 16.927334,-0.5348 25.390606,-0.80181 z"
       inkscape:export-xdpi="96"
       inkscape:export-ydpi="96" />
    <g
       id="g1449"
       transform="translate(-101.29762,0.75595238)"
       inkscape:export-xdpi="96"
       inkscape:export-ydpi="96">
      <circle
         r="7.8844509"
         cy="232.72166"
         cx="66.851143"
         id="path1424"
         style="opacity:1;vector-effect:none;fill:#000000;fill-opacity:1;stroke:none;stroke-width:1.10000002;stroke-linecap:butt;stroke-linejoin:miter;stroke-miterlimit:4;stroke-dasharray:none;stroke-dashoffset:0;stroke-opacity:1" />
      <path
         inkscape:connector-curvature="0"
         id="path1428"
         d="m 66.812469,240.43897 v 11.927"
         style="fill:none;stroke:#000000;stroke-width:0.26347965px;stroke-linecap:butt;stroke-linejoin:miter;stroke-opacity:1" />
      <path
         inkscape:connector-curvature="0"
         id="path1438"
         d="M 66.817382,252.36597 60.815984,262.7607 Z"
         style="fill:none;stroke:#000000;stroke-width:0.26458332px;stroke-linecap:butt;stroke-linejoin:miter;stroke-opacity:1" />
      <path
         sodipodi:nodetypes="ccc"
         inkscape:connector-curvature="0"
         id="path1440"
         d="m 66.817382,252.36597 5.587386,10.3391 z"
         style="fill:none;stroke:#000000;stroke-width:0.26458332px;stroke-linecap:butt;stroke-linejoin:miter;stroke-opacity:1" />
      <path
         sodipodi:nodetypes="cc"
         inkscape:connector-curvature="0"
         id="path1442"
         d="M 55.883777,246.04886 H 77.511904"
         style="fill:none;stroke:#000000;stroke-width:0.26327777px;stroke-linecap:butt;stroke-linejoin:miter;stroke-opacity:1" />
    </g>
  </g>
</svg>
